<mxfile host="app.diagrams.net" agent="Mozilla/5.0 (Macintosh; Intel Mac OS X 10_15_7) AppleWebKit/537.36 (KHTML, like Gecko) Chrome/134.0.0.0 Safari/537.36" version="26.2.9">
  <diagram name="Page-1" id="Chr7uXZJnthBSz9iBYTs">
    <mxGraphModel dx="2225" dy="2063" grid="1" gridSize="10" guides="1" tooltips="1" connect="1" arrows="1" fold="1" page="1" pageScale="1" pageWidth="827" pageHeight="1169" math="0" shadow="0">
      <root>
        <mxCell id="0" />
        <mxCell id="1" parent="0" />
        <mxCell id="pyC8v3ItS7kcxDQpEfJM-10" value="Region" style="points=[[0,0],[0.25,0],[0.5,0],[0.75,0],[1,0],[1,0.25],[1,0.5],[1,0.75],[1,1],[0.75,1],[0.5,1],[0.25,1],[0,1],[0,0.75],[0,0.5],[0,0.25]];outlineConnect=0;gradientColor=none;html=1;whiteSpace=wrap;fontSize=12;fontStyle=0;container=0;pointerEvents=0;collapsible=0;recursiveResize=0;shape=mxgraph.aws4.group;grIcon=mxgraph.aws4.group_region;strokeColor=#00A4A6;fillColor=none;verticalAlign=top;align=left;spacingLeft=30;fontColor=#147EBA;dashed=1;strokeWidth=2;" vertex="1" parent="1">
          <mxGeometry x="-20" y="-20" width="940" height="660" as="geometry" />
        </mxCell>
        <mxCell id="pyC8v3ItS7kcxDQpEfJM-12" value="" style="group" vertex="1" connectable="0" parent="1">
          <mxGeometry x="-730" y="92" width="170" height="370" as="geometry" />
        </mxCell>
        <mxCell id="pyC8v3ItS7kcxDQpEfJM-9" value="On-Premise" style="sketch=0;outlineConnect=0;gradientColor=none;html=1;whiteSpace=wrap;fontSize=12;fontStyle=0;shape=mxgraph.aws4.group;grIcon=mxgraph.aws4.group_on_premise;strokeColor=#858B94;fillColor=none;verticalAlign=top;align=left;spacingLeft=30;fontColor=#858B94;dashed=0;" vertex="1" parent="pyC8v3ItS7kcxDQpEfJM-12">
          <mxGeometry width="170" height="370" as="geometry" />
        </mxCell>
        <mxCell id="pyC8v3ItS7kcxDQpEfJM-11" value="" style="image;points=[];aspect=fixed;html=1;align=center;shadow=0;dashed=0;image=img/lib/allied_telesis/computer_and_terminals/Personal_Computer_with_Server.svg;" vertex="1" parent="pyC8v3ItS7kcxDQpEfJM-12">
          <mxGeometry x="49.88095238095238" y="111.25874125874127" width="70.24793388429752" height="70.24793388429752" as="geometry" />
        </mxCell>
        <mxCell id="pyC8v3ItS7kcxDQpEfJM-23" style="edgeStyle=orthogonalEdgeStyle;rounded=0;orthogonalLoop=1;jettySize=auto;html=1;" edge="1" parent="1" target="pyC8v3ItS7kcxDQpEfJM-18">
          <mxGeometry relative="1" as="geometry">
            <mxPoint x="-290" y="240" as="sourcePoint" />
          </mxGeometry>
        </mxCell>
        <mxCell id="pyC8v3ItS7kcxDQpEfJM-13" value="Internet" style="outlineConnect=0;dashed=0;verticalLabelPosition=bottom;verticalAlign=top;align=center;html=1;shape=mxgraph.aws3.internet_2;fillColor=#0000FF;gradientColor=none;" vertex="1" parent="1">
          <mxGeometry x="-370" y="201.26" width="79.5" height="54" as="geometry" />
        </mxCell>
        <mxCell id="pyC8v3ItS7kcxDQpEfJM-18" value="IgW" style="sketch=0;outlineConnect=0;fontColor=#232F3E;gradientColor=none;fillColor=#8C4FFF;strokeColor=none;dashed=0;verticalLabelPosition=bottom;verticalAlign=top;align=center;html=1;fontSize=12;fontStyle=0;aspect=fixed;pointerEvents=1;shape=mxgraph.aws4.internet_gateway;labelPosition=center;horizontal=1;textShadow=1;" vertex="1" parent="1">
          <mxGeometry x="10" y="211" width="58" height="58" as="geometry" />
        </mxCell>
        <mxCell id="pyC8v3ItS7kcxDQpEfJM-19" value="VPC" style="points=[[0,0],[0.25,0],[0.5,0],[0.75,0],[1,0],[1,0.25],[1,0.5],[1,0.75],[1,1],[0.75,1],[0.5,1],[0.25,1],[0,1],[0,0.75],[0,0.5],[0,0.25]];outlineConnect=0;gradientColor=none;html=1;whiteSpace=wrap;fontSize=12;fontStyle=0;container=0;pointerEvents=0;collapsible=0;recursiveResize=0;shape=mxgraph.aws4.group;grIcon=mxgraph.aws4.group_vpc2;strokeColor=#8C4FFF;fillColor=none;verticalAlign=top;align=left;spacingLeft=30;fontColor=#AAB7B8;dashed=0;" vertex="1" parent="1">
          <mxGeometry x="40" y="35" width="840" height="565" as="geometry" />
        </mxCell>
        <mxCell id="pyC8v3ItS7kcxDQpEfJM-5" value="Public subnet" style="points=[[0,0],[0.25,0],[0.5,0],[0.75,0],[1,0],[1,0.25],[1,0.5],[1,0.75],[1,1],[0.75,1],[0.5,1],[0.25,1],[0,1],[0,0.75],[0,0.5],[0,0.25]];outlineConnect=0;gradientColor=none;html=1;whiteSpace=wrap;fontSize=12;fontStyle=0;container=1;pointerEvents=0;collapsible=0;recursiveResize=0;shape=mxgraph.aws4.group;grIcon=mxgraph.aws4.group_security_group;grStroke=0;strokeColor=#7AA116;fillColor=#F2F6E8;verticalAlign=top;align=left;spacingLeft=30;fontColor=#248814;dashed=0;" vertex="1" parent="1">
          <mxGeometry x="130" y="120" width="300" height="360" as="geometry" />
        </mxCell>
        <mxCell id="pyC8v3ItS7kcxDQpEfJM-22" value="AWS Cloud" style="points=[[0,0],[0.25,0],[0.5,0],[0.75,0],[1,0],[1,0.25],[1,0.5],[1,0.75],[1,1],[0.75,1],[0.5,1],[0.25,1],[0,1],[0,0.75],[0,0.5],[0,0.25]];outlineConnect=0;gradientColor=none;html=1;whiteSpace=wrap;fontSize=12;fontStyle=0;container=1;pointerEvents=0;collapsible=0;recursiveResize=0;shape=mxgraph.aws4.group;grIcon=mxgraph.aws4.group_aws_cloud;strokeColor=#232F3E;fillColor=none;verticalAlign=top;align=left;spacingLeft=30;fontColor=#232F3E;dashed=0;" vertex="1" parent="1">
          <mxGeometry x="-50" y="-60" width="1110" height="780" as="geometry" />
        </mxCell>
        <mxCell id="pyC8v3ItS7kcxDQpEfJM-8" value="Availability zone" style="sketch=0;outlineConnect=0;gradientColor=none;html=1;whiteSpace=wrap;fontSize=12;fontStyle=0;shape=mxgraph.aws4.group;grIcon=mxgraph.aws4.group_availability_zone;strokeColor=#545B64;fillColor=none;verticalAlign=top;align=left;spacingLeft=30;fontColor=#545B64;dashed=1;strokeWidth=2;movable=1;resizable=1;rotatable=1;deletable=1;editable=1;locked=0;connectable=1;" vertex="1" parent="pyC8v3ItS7kcxDQpEfJM-22">
          <mxGeometry x="145" y="130" width="735" height="470" as="geometry" />
        </mxCell>
        <mxCell id="pyC8v3ItS7kcxDQpEfJM-1" value="App Server" style="sketch=0;points=[[0,0,0],[0.25,0,0],[0.5,0,0],[0.75,0,0],[1,0,0],[0,1,0],[0.25,1,0],[0.5,1,0],[0.75,1,0],[1,1,0],[0,0.25,0],[0,0.5,0],[0,0.75,0],[1,0.25,0],[1,0.5,0],[1,0.75,0]];outlineConnect=0;fontColor=#232F3E;fillColor=#ED7100;strokeColor=#ffffff;dashed=0;verticalLabelPosition=bottom;verticalAlign=top;align=center;html=1;fontSize=12;fontStyle=0;aspect=fixed;shape=mxgraph.aws4.resourceIcon;resIcon=mxgraph.aws4.compute;labelPosition=center;" vertex="1" parent="pyC8v3ItS7kcxDQpEfJM-22">
          <mxGeometry x="320" y="376" width="78" height="78" as="geometry" />
        </mxCell>
        <mxCell id="pyC8v3ItS7kcxDQpEfJM-30" value="M-Banking SG" style="rounded=1;arcSize=10;dashed=1;strokeColor=#ff0000;fillColor=none;gradientColor=none;dashPattern=8 4;strokeWidth=2;verticalAlign=bottom;labelPosition=center;verticalLabelPosition=top;align=center;" vertex="1" parent="pyC8v3ItS7kcxDQpEfJM-22">
          <mxGeometry x="299" y="221.26" width="120" height="118.01" as="geometry" />
        </mxCell>
        <mxCell id="pyC8v3ItS7kcxDQpEfJM-32" value="App sg" style="rounded=1;arcSize=10;dashed=1;strokeColor=#ff0000;fillColor=none;gradientColor=none;dashPattern=8 4;strokeWidth=2;verticalAlign=top;labelPosition=left;verticalLabelPosition=bottom;align=right;" vertex="1" parent="pyC8v3ItS7kcxDQpEfJM-22">
          <mxGeometry x="300" y="360" width="119" height="120" as="geometry" />
        </mxCell>
        <mxCell id="pyC8v3ItS7kcxDQpEfJM-33" value="S3" style="sketch=0;points=[[0,0,0],[0.25,0,0],[0.5,0,0],[0.75,0,0],[1,0,0],[0,1,0],[0.25,1,0],[0.5,1,0],[0.75,1,0],[1,1,0],[0,0.25,0],[0,0.5,0],[0,0.75,0],[1,0.25,0],[1,0.5,0],[1,0.75,0]];outlineConnect=0;fontColor=#232F3E;fillColor=#7AA116;strokeColor=#ffffff;dashed=0;verticalLabelPosition=bottom;verticalAlign=top;align=center;html=1;fontSize=12;fontStyle=0;aspect=fixed;shape=mxgraph.aws4.resourceIcon;resIcon=mxgraph.aws4.s3;" vertex="1" parent="pyC8v3ItS7kcxDQpEfJM-22">
          <mxGeometry x="1000" y="600" width="78" height="78" as="geometry" />
        </mxCell>
        <mxCell id="pyC8v3ItS7kcxDQpEfJM-4" value="Private subnet" style="points=[[0,0],[0.25,0],[0.5,0],[0.75,0],[1,0],[1,0.25],[1,0.5],[1,0.75],[1,1],[0.75,1],[0.5,1],[0.25,1],[0,1],[0,0.75],[0,0.5],[0,0.25]];outlineConnect=0;gradientColor=none;html=1;whiteSpace=wrap;fontSize=12;fontStyle=0;container=0;pointerEvents=0;collapsible=0;recursiveResize=0;shape=mxgraph.aws4.group;grIcon=mxgraph.aws4.group_security_group;grStroke=0;strokeColor=#00A4A6;fillColor=#E6F6F7;verticalAlign=top;align=left;spacingLeft=30;fontColor=#147EBA;dashed=0;" vertex="1" parent="pyC8v3ItS7kcxDQpEfJM-22">
          <mxGeometry x="520" y="180" width="290" height="360" as="geometry" />
        </mxCell>
        <mxCell id="pyC8v3ItS7kcxDQpEfJM-41" style="edgeStyle=orthogonalEdgeStyle;rounded=0;orthogonalLoop=1;jettySize=auto;html=1;" edge="1" parent="pyC8v3ItS7kcxDQpEfJM-22" source="pyC8v3ItS7kcxDQpEfJM-37" target="pyC8v3ItS7kcxDQpEfJM-33">
          <mxGeometry relative="1" as="geometry" />
        </mxCell>
        <mxCell id="pyC8v3ItS7kcxDQpEfJM-37" value="VPC Endpoint" style="sketch=0;outlineConnect=0;fontColor=#232F3E;gradientColor=none;fillColor=#8C4FFF;strokeColor=none;dashed=0;verticalLabelPosition=bottom;verticalAlign=top;align=center;html=1;fontSize=12;fontStyle=0;aspect=fixed;pointerEvents=1;shape=mxgraph.aws4.endpoints;" vertex="1" parent="pyC8v3ItS7kcxDQpEfJM-22">
          <mxGeometry x="900" y="510" width="58" height="58" as="geometry" />
        </mxCell>
        <mxCell id="pyC8v3ItS7kcxDQpEfJM-6" value="" style="sketch=0;outlineConnect=0;fontColor=#232F3E;gradientColor=none;fillColor=#8C4FFF;strokeColor=none;dashed=0;verticalLabelPosition=bottom;verticalAlign=top;align=center;html=1;fontSize=12;fontStyle=0;aspect=fixed;pointerEvents=1;shape=mxgraph.aws4.nat_gateway;" vertex="1" parent="pyC8v3ItS7kcxDQpEfJM-22">
          <mxGeometry x="200" y="318" width="58" height="58" as="geometry" />
        </mxCell>
        <mxCell id="pyC8v3ItS7kcxDQpEfJM-42" value="Firewall" style="sketch=0;points=[[0,0,0],[0.25,0,0],[0.5,0,0],[0.75,0,0],[1,0,0],[0,1,0],[0.25,1,0],[0.5,1,0],[0.75,1,0],[1,1,0],[0,0.25,0],[0,0.5,0],[0,0.75,0],[1,0.25,0],[1,0.5,0],[1,0.75,0]];outlineConnect=0;fontColor=#232F3E;fillColor=#DD344C;strokeColor=#ffffff;dashed=0;verticalLabelPosition=middle;verticalAlign=top;align=center;html=1;fontSize=12;fontStyle=0;aspect=fixed;shape=mxgraph.aws4.resourceIcon;resIcon=mxgraph.aws4.network_firewall;horizontal=0;labelPosition=right;" vertex="1" parent="pyC8v3ItS7kcxDQpEfJM-22">
          <mxGeometry x="64" y="376" width="58" height="58" as="geometry" />
        </mxCell>
        <mxCell id="pyC8v3ItS7kcxDQpEfJM-24" style="edgeStyle=orthogonalEdgeStyle;rounded=0;orthogonalLoop=1;jettySize=auto;html=1;entryX=0;entryY=0.7;entryDx=0;entryDy=0;entryPerimeter=0;" edge="1" parent="1" source="pyC8v3ItS7kcxDQpEfJM-11" target="pyC8v3ItS7kcxDQpEfJM-13">
          <mxGeometry relative="1" as="geometry" />
        </mxCell>
        <mxCell id="pyC8v3ItS7kcxDQpEfJM-27" style="edgeStyle=orthogonalEdgeStyle;rounded=0;orthogonalLoop=1;jettySize=auto;html=1;" edge="1" parent="1" source="pyC8v3ItS7kcxDQpEfJM-18" target="pyC8v3ItS7kcxDQpEfJM-6">
          <mxGeometry relative="1" as="geometry">
            <Array as="points">
              <mxPoint x="179" y="240" />
            </Array>
          </mxGeometry>
        </mxCell>
        <mxCell id="pyC8v3ItS7kcxDQpEfJM-3" value="M-banking" style="sketch=0;points=[[0,0,0],[0.25,0,0],[0.5,0,0],[0.75,0,0],[1,0,0],[0,1,0],[0.25,1,0],[0.5,1,0],[0.75,1,0],[1,1,0],[0,0.25,0],[0,0.5,0],[0,0.75,0],[1,0.25,0],[1,0.5,0],[1,0.75,0]];outlineConnect=0;fontColor=#232F3E;fillColor=#ED7100;strokeColor=#ffffff;dashed=0;verticalLabelPosition=bottom;verticalAlign=top;align=center;html=1;fontSize=12;fontStyle=0;aspect=fixed;shape=mxgraph.aws4.resourceIcon;resIcon=mxgraph.aws4.compute;" vertex="1" parent="1">
          <mxGeometry x="270" y="177.26" width="78" height="78" as="geometry" />
        </mxCell>
        <mxCell id="pyC8v3ItS7kcxDQpEfJM-25" style="edgeStyle=orthogonalEdgeStyle;rounded=0;orthogonalLoop=1;jettySize=auto;html=1;entryX=0;entryY=0.5;entryDx=0;entryDy=0;entryPerimeter=0;" edge="1" parent="1" source="pyC8v3ItS7kcxDQpEfJM-1" target="pyC8v3ItS7kcxDQpEfJM-2">
          <mxGeometry relative="1" as="geometry" />
        </mxCell>
        <mxCell id="pyC8v3ItS7kcxDQpEfJM-31" value="DB SG" style="rounded=1;arcSize=10;dashed=1;strokeColor=#ff0000;fillColor=none;gradientColor=none;dashPattern=8 4;strokeWidth=2;labelPosition=left;verticalLabelPosition=top;align=right;verticalAlign=bottom;" vertex="1" parent="1">
          <mxGeometry x="520.25" y="212.25" width="119.5" height="129.5" as="geometry" />
        </mxCell>
        <mxCell id="pyC8v3ItS7kcxDQpEfJM-34" value="" style="outlineConnect=0;dashed=0;verticalLabelPosition=bottom;verticalAlign=top;align=center;html=1;shape=mxgraph.aws3.volume;fillColor=#E05243;gradientColor=none;" vertex="1" parent="1">
          <mxGeometry x="330" y="222.5" width="32.5" height="35" as="geometry" />
        </mxCell>
        <mxCell id="pyC8v3ItS7kcxDQpEfJM-40" style="edgeStyle=orthogonalEdgeStyle;rounded=0;orthogonalLoop=1;jettySize=auto;html=1;" edge="1" parent="1" source="pyC8v3ItS7kcxDQpEfJM-2" target="pyC8v3ItS7kcxDQpEfJM-37">
          <mxGeometry relative="1" as="geometry">
            <Array as="points">
              <mxPoint x="800" y="277" />
              <mxPoint x="800" y="479" />
            </Array>
          </mxGeometry>
        </mxCell>
        <mxCell id="pyC8v3ItS7kcxDQpEfJM-2" value="DB Server" style="sketch=0;points=[[0,0,0],[0.25,0,0],[0.5,0,0],[0.75,0,0],[1,0,0],[0,1,0],[0.25,1,0],[0.5,1,0],[0.75,1,0],[1,1,0],[0,0.25,0],[0,0.5,0],[0,0.75,0],[1,0.25,0],[1,0.5,0],[1,0.75,0]];outlineConnect=0;fontColor=#232F3E;fillColor=#ED7100;strokeColor=#ffffff;dashed=0;verticalLabelPosition=bottom;verticalAlign=top;align=center;html=1;fontSize=12;fontStyle=0;aspect=fixed;shape=mxgraph.aws4.resourceIcon;resIcon=mxgraph.aws4.compute;" vertex="1" parent="1">
          <mxGeometry x="541" y="238" width="78" height="78" as="geometry" />
        </mxCell>
        <mxCell id="pyC8v3ItS7kcxDQpEfJM-35" value="" style="outlineConnect=0;dashed=0;verticalLabelPosition=bottom;verticalAlign=top;align=center;html=1;shape=mxgraph.aws3.volume;fillColor=#E05243;gradientColor=none;" vertex="1" parent="1">
          <mxGeometry x="320" y="360" width="32.5" height="35" as="geometry" />
        </mxCell>
        <mxCell id="pyC8v3ItS7kcxDQpEfJM-36" value="" style="outlineConnect=0;dashed=0;verticalLabelPosition=bottom;verticalAlign=top;align=center;html=1;shape=mxgraph.aws3.volume;fillColor=#E05243;gradientColor=none;" vertex="1" parent="1">
          <mxGeometry x="600" y="282.5" width="32.5" height="35" as="geometry" />
        </mxCell>
        <mxCell id="pyC8v3ItS7kcxDQpEfJM-38" style="edgeStyle=orthogonalEdgeStyle;rounded=0;orthogonalLoop=1;jettySize=auto;html=1;" edge="1" parent="1" source="pyC8v3ItS7kcxDQpEfJM-6" target="pyC8v3ItS7kcxDQpEfJM-2">
          <mxGeometry relative="1" as="geometry">
            <mxPoint x="218" y="303.5" as="sourcePoint" />
            <mxPoint x="541" y="282.5" as="targetPoint" />
            <Array as="points">
              <mxPoint x="430" y="290" />
              <mxPoint x="430" y="260" />
            </Array>
          </mxGeometry>
        </mxCell>
        <mxCell id="pyC8v3ItS7kcxDQpEfJM-39" style="edgeStyle=orthogonalEdgeStyle;rounded=0;orthogonalLoop=1;jettySize=auto;html=1;entryX=0;entryY=0.5;entryDx=0;entryDy=0;entryPerimeter=0;" edge="1" parent="1" source="pyC8v3ItS7kcxDQpEfJM-18" target="pyC8v3ItS7kcxDQpEfJM-3">
          <mxGeometry relative="1" as="geometry">
            <Array as="points">
              <mxPoint x="110" y="240" />
              <mxPoint x="110" y="216" />
            </Array>
          </mxGeometry>
        </mxCell>
      </root>
    </mxGraphModel>
  </diagram>
</mxfile>
